<svg xmlns="http://www.w3.org/2000/svg" width="180" height="180" fill="none"><path fill="#000" d="M82.39 2.111a14 14 0 0 1 14.568 0l10.401 6.337a14 14 0 0 0 7.613 2.04l12.176-.287a14.003 14.003 0 0 1 12.616 7.283l5.839 10.688a14.005 14.005 0 0 0 5.573 5.574l10.688 5.84a14.001 14.001 0 0 1 7.284 12.615l-.287 12.175a14.004 14.004 0 0 0 2.04 7.614l6.336 10.4a14 14 0 0 1 0 14.568l-6.336 10.401a14 14 0 0 0-2.04 7.613l.287 12.176a14.002 14.002 0 0 1-7.284 12.616l-10.688 5.839a14.005 14.005 0 0 0-5.573 5.573l-5.839 10.688a14.003 14.003 0 0 1-12.616 7.284l-12.176-.287a14 14 0 0 0-7.613 2.04l-10.401 6.336a13.998 13.998 0 0 1-14.567 0l-10.401-6.336a14.004 14.004 0 0 0-7.614-2.04l-12.175.287a13.994 13.994 0 0 1-12.616-7.284l-5.84-10.688a14.004 14.004 0 0 0-5.573-5.573l-10.688-5.839a14.001 14.001 0 0 1-7.283-12.616l.287-12.176a14 14 0 0 0-2.04-7.613L2.11 96.958a14 14 0 0 1 0-14.567L8.448 71.99a14 14 0 0 0 2.04-7.614L10.2 52.201a13.998 13.998 0 0 1 7.283-12.616l10.688-5.84a14 14 0 0 0 5.574-5.573l5.84-10.688A14 14 0 0 1 52.2 10.201l12.175.287a14 14 0 0 0 7.614-2.04l10.4-6.337h.001z"/></svg>